<?xml version="1.0" standalone="no"?>
<!DOCTYPE svg PUBLIC "-//W3C//DTD SVG 20010904//EN"
 "http://www.w3.org/TR/2001/REC-SVG-20010904/DTD/svg10.dtd">
<svg version="1.0" xmlns="http://www.w3.org/2000/svg"
 width="394.000000pt" height="394.000000pt" viewBox="0 0 394.000000 394.000000"
 preserveAspectRatio="xMidYMid meet">

<g transform="translate(0.000000,394.000000) scale(0.100000,-0.100000)"
fill="#000000" stroke="none">
<path d="M1780 3390 c-204 -26 -425 -111 -610 -234 -308 -207 -518 -519 -607
-901 -14 -65 -18 -119 -17 -285 0 -186 3 -215 27 -315 67 -277 190 -499 387
-696 199 -198 423 -321 710 -390 82 -20 122 -23 290 -23 150 -1 215 4 280 17
326 69 616 239 818 479 154 184 249 371 308 608 26 106 28 130 28 310 0 208
-9 278 -61 445 -150 482 -575 864 -1078 970 -92 19 -374 28 -475 15z m510 -43
c261 -65 473 -182 663 -366 206 -200 336 -436 404 -736 26 -116 26 -446 -1
-560 -31 -135 -63 -225 -126 -350 -192 -383 -539 -650 -975 -751 -123 -29
-465 -27 -591 4 -553 132 -950 535 -1080 1097 -15 65 -19 120 -19 290 1 231
12 305 75 476 163 447 558 794 1020 897 136 30 137 30 340 27 159 -2 200 -6
290 -28z"/>
<path d="M1710 3320 c-272 -52 -506 -177 -710 -379 -265 -263 -400 -587 -400
-960 0 -383 134 -712 398 -978 262 -263 600 -403 975 -403 368 0 697 138 962
404 122 122 194 221 261 357 337 678 57 1508 -621 1839 -218 107 -367 140
-615 139 -105 -1 -186 -7 -250 -19z m495 -16 c539 -93 979 -522 1090 -1061
124 -598 -174 -1208 -723 -1483 -190 -95 -386 -141 -602 -141 -660 -1 -1216
464 -1337 1116 -23 125 -23 371 0 485 54 266 171 491 352 679 326 340 763 485
1220 405z"/>
<path d="M1823 3089 c-19 -19 -14 -112 10 -223 5 -26 39 -37 68 -22 19 9 25
21 27 56 4 52 -6 160 -16 177 -11 18 -75 26 -89 12z m68 -105 c5 -82 -4 -125
-23 -106 -13 13 -24 153 -14 177 14 38 31 6 37 -71z"/>
<path d="M2066 3063 c-3 -21 -8 -59 -11 -85 -3 -27 -7 -68 -10 -92 -5 -37 -3
-44 14 -49 17 -4 20 2 26 65 5 46 10 66 16 57 5 -8 9 -24 9 -36 0 -13 5 -23
10 -23 7 0 8 -13 4 -35 -5 -30 -4 -35 14 -35 18 0 20 9 26 88 4 48 10 107 13
130 5 39 4 44 -13 40 -15 -2 -20 -15 -24 -63 l-5 -60 -18 57 c-9 31 -17 61
-17 67 0 6 -6 11 -14 11 -9 0 -16 -15 -20 -37z"/>
<path d="M1595 3063 c-11 -3 -23 -8 -27 -12 -4 -3 4 -60 17 -126 14 -66 25
-122 25 -124 0 -7 76 11 88 22 9 7 12 22 8 41 -33 198 -43 215 -111 199z m49
-55 c9 -36 7 -86 -4 -93 -11 -7 -24 22 -34 78 -6 32 -4 37 12 37 12 0 22 -9
26 -22z m24 -145 c-5 -25 -28 -28 -28 -4 0 12 6 21 16 21 9 0 14 -7 12 -17z"/>
<path d="M2300 2958 c-12 -57 -24 -112 -27 -124 -4 -18 2 -23 41 -33 58 -14
56 -14 56 8 0 14 -8 21 -27 23 -38 4 -42 28 -5 28 41 0 52 29 13 36 l-28 6 15
60 15 60 33 -5 c28 -5 34 -3 34 12 0 13 -10 21 -31 25 -65 13 -65 14 -89 -96z"/>
<path d="M1699 2585 c-15 -8 -29 -26 -31 -39 -3 -14 -1 -23 3 -20 5 3 9 14 9
26 0 16 5 19 25 16 19 -4 25 -1 25 13 0 22 2 22 -31 4z"/>
<path d="M1740 2545 c0 -8 7 -15 15 -15 9 0 12 6 9 15 -4 8 -10 15 -15 15 -5
0 -9 -7 -9 -15z"/>
<path d="M1701 2530 c-2 -32 -16 -54 -30 -46 -6 4 -11 2 -11 -3 0 -6 5 -11 10
-11 11 0 13 -30 4 -54 -3 -9 -9 -14 -13 -11 -8 5 -5 -85 3 -93 3 -2 8 7 11 21
4 14 15 27 25 30 17 4 18 9 8 40 -7 24 -8 48 -1 74 5 21 6 48 2 58 -7 18 -8
17 -8 -5z"/>
<path d="M1580 2511 c0 -6 4 -13 10 -16 6 -3 7 1 4 9 -7 18 -14 21 -14 7z"/>
<path d="M1620 2491 c-14 -15 -25 -30 -25 -34 0 -4 -6 -12 -14 -16 -7 -5 -12
-14 -10 -20 2 -6 21 12 42 40 42 57 45 68 7 30z"/>
<path d="M1766 2509 c4 -7 -4 -20 -17 -31 -21 -17 -21 -18 -3 -9 16 8 25 7 33
-3 6 -7 8 -16 4 -19 -3 -4 0 -7 7 -7 7 0 10 -3 7 -7 -8 -7 11 -33 23 -33 5 0
-3 21 -16 48 -13 26 -24 53 -24 60 0 6 -5 12 -11 12 -5 0 -7 -5 -3 -11z"/>
<path d="M2210 2462 c0 -5 3 -12 7 -16 4 -3 8 -12 9 -19 9 -52 15 -72 24 -81
6 -6 4 10 -4 36 -7 26 -11 49 -9 52 3 3 -2 12 -11 21 -9 9 -16 12 -16 7z"/>
<path d="M1928 2390 c3 -54 6 -60 25 -59 18 1 19 2 4 6 -12 3 -16 11 -12 23 7
21 -4 90 -14 90 -3 0 -4 -27 -3 -60z"/>
<path d="M2111 2424 c0 -11 6 -29 14 -40 8 -10 15 -14 15 -8 0 5 -4 14 -9 20
-5 5 -11 18 -14 29 -5 20 -5 19 -6 -1z"/>
<path d="M1581 2358 c4 -24 11 -54 15 -68 4 -15 3 -22 -2 -17 -5 5 -9 14 -9
20 0 7 -9 13 -20 15 -16 3 -17 1 -5 -7 14 -10 7 -15 -13 -12 -4 1 -3 -8 3 -19
8 -14 21 -20 48 -21 31 0 34 -2 17 -10 -19 -8 -19 -9 -1 -6 12 1 20 11 21 24
1 13 5 26 10 30 4 5 5 0 2 -10 -4 -11 -3 -16 3 -12 15 9 12 32 -5 39 -8 3 -15
13 -15 23 0 15 -43 73 -54 73 -1 0 1 -19 5 -42z"/>
<path d="M2154 2348 c-5 -29 -13 -52 -19 -50 -13 5 -23 -25 -24 -68 -1 -20 -5
-40 -10 -45 -6 -6 -4 -15 5 -23 12 -11 14 -10 15 5 0 11 2 13 6 5 4 -10 9 -9
20 5 8 10 12 12 8 5 -8 -15 13 -44 26 -36 5 3 9 0 9 -6 0 -7 7 -10 15 -6 8 3
15 1 15 -3 0 -5 -6 -12 -12 -14 -8 -3 -5 -6 6 -6 12 -1 16 -6 12 -16 -3 -8 2
-19 12 -24 14 -8 15 -10 2 -15 -8 -3 -24 -4 -35 -2 -58 10 -59 -55 -2 -77 11
-4 21 -16 24 -27 6 -21 15 -25 27 -13 4 4 -3 15 -16 25 -22 17 -22 18 -2 18
11 0 33 -14 50 -31 26 -28 26 -30 6 -19 -21 10 -23 10 -20 -7 2 -11 11 -17 21
-15 10 2 34 -12 53 -31 28 -27 35 -42 37 -78 1 -32 -2 -44 -12 -44 -8 0 -16 6
-19 13 -2 7 2 10 12 6 19 -7 21 12 6 50 -13 35 -30 33 -30 -5 0 -27 -3 -30
-22 -23 -13 3 -30 12 -38 19 -8 6 -24 16 -35 20 -18 7 -17 9 10 15 35 9 25 13
-26 10 -31 -1 -43 6 -85 47 -27 26 -43 41 -36 31 19 -24 -2 -30 -26 -7 -12 11
-22 15 -22 9 0 -7 -9 -9 -22 -4 -31 9 -35 14 -19 23 8 5 -7 7 -34 3 -38 -4
-46 -2 -40 8 6 10 1 12 -21 7 -24 -4 -39 3 -84 40 -30 25 -54 50 -52 54 3 12
-15 11 -23 0 -3 -6 16 -24 42 -42 43 -30 48 -53 6 -31 -10 5 -27 6 -38 2 -21
-8 -23 -7 75 -26 34 -6 70 -50 70 -86 1 -12 7 -34 15 -48 8 -15 12 -41 9 -65
-3 -22 -1 -45 3 -51 11 -16 73 -28 73 -15 0 6 -4 11 -8 11 -5 0 -9 7 -9 15 0
8 4 15 9 15 14 0 9 37 -7 50 -17 14 -21 35 -5 25 12 -7 12 2 0 30 -8 19 -9 19
-9 -2 -2 -54 -53 -10 -65 55 -5 29 -3 32 20 32 13 0 41 -7 61 -15 20 -8 38
-13 41 -10 3 2 21 -4 41 -14 20 -10 53 -26 74 -36 20 -10 37 -22 37 -27 0 -4
5 -8 11 -8 6 0 29 -16 52 -35 22 -19 47 -35 54 -35 7 0 13 -9 13 -19 0 -11 7
-26 15 -35 18 -18 20 -46 3 -46 -9 0 -10 -3 -2 -8 12 -8 12 -68 -1 -79 -4 -5
-5 4 -3 20 6 29 2 32 -21 18 -13 -8 -13 -12 -1 -26 15 -18 5 -30 -36 -41 -15
-4 -20 -11 -17 -25 3 -12 -6 -32 -26 -54 -19 -21 -31 -30 -31 -21 0 10 -6 13
-17 9 -12 -4 -11 0 5 11 12 10 22 25 22 34 -1 15 -2 15 -11 -1 -8 -13 -18 -17
-33 -13 -14 3 -30 -1 -42 -12 -20 -18 -38 -22 -49 -10 -4 4 -13 4 -21 1 -8 -3
-14 0 -14 6 0 6 7 11 15 11 23 0 18 28 -7 41 -16 9 -23 9 -26 0 -7 -22 -19
-11 -14 14 5 31 -3 32 -19 3 -20 -36 -39 -128 -27 -128 6 0 6 -6 -2 -15 -6 -8
-9 -19 -6 -24 4 -5 -10 -26 -30 -46 -35 -35 -38 -36 -95 -31 -37 3 -59 2 -59
-5 0 -6 -29 -9 -77 -8 -43 1 -88 -1 -100 -5 -14 -5 -23 -3 -23 3 0 19 -75 12
-97 -8 -12 -11 -24 -18 -27 -15 -3 2 -3 0 1 -5 11 -12 96 -31 140 -31 39 0 93
19 93 33 0 12 25 8 60 -9 25 -13 44 -15 84 -9 28 4 67 9 86 10 47 4 90 15 90
25 0 5 14 11 30 15 17 4 30 13 30 21 0 10 12 14 39 14 22 0 43 5 46 10 3 6 14
10 24 10 10 0 31 7 47 14 15 8 32 12 38 9 6 -3 8 -3 4 1 -4 5 13 33 38 63 24
30 41 59 38 65 -4 6 -3 8 3 5 5 -3 28 32 51 79 26 52 37 84 29 84 -7 1 -5 6 6
14 20 15 18 36 -10 113 -13 35 -13 53 -4 108 7 37 19 87 27 112 9 25 13 52 9
61 -3 9 -3 13 2 9 4 -4 20 25 35 65 45 116 45 117 0 73 -27 -26 -38 -43 -31
-50 6 -6 13 -5 20 5 8 11 9 9 4 -10 -9 -32 -25 -50 -25 -27 0 9 -7 17 -16 17
-10 0 -14 -5 -10 -15 10 -28 -5 -75 -25 -75 -11 0 -18 3 -18 8 3 14 -14 73
-22 78 -5 3 -4 14 2 26 11 21 15 105 5 116 -3 3 -7 -13 -7 -36 -2 -55 -1 -52
-26 -94 -24 -41 -43 -49 -43 -19 0 10 -7 24 -15 31 -20 17 -46 6 -38 -16 5
-14 3 -16 -11 -11 -10 4 -22 7 -27 7 -6 0 -7 5 -4 10 4 6 11 8 16 5 5 -4 9 1
9 9 0 8 -5 18 -10 21 -8 5 -8 11 0 20 9 11 7 12 -10 8 -12 -3 -24 -12 -27 -19
-4 -10 -10 -11 -24 -3 -11 5 -24 7 -29 4 -6 -4 -2 9 7 28 13 25 23 33 38 30
16 -3 15 -1 -3 7 -18 8 -22 15 -16 32 15 48 23 66 34 73 9 6 9 10 -1 16 -23
14 -25 11 -35 -43z m166 -248 c0 -5 -2 -10 -4 -10 -3 0 -8 5 -11 10 -3 6 -1
10 4 10 6 0 11 -4 11 -10z m53 -23 c-2 -4 -9 -5 -14 -2 -8 6 -13 -15 -10 -42
1 -7 -3 -13 -8 -13 -20 0 -22 22 -6 55 13 29 18 33 29 22 8 -6 12 -15 9 -20z
m-63 -7 c0 -5 -2 -10 -4 -10 -3 0 -8 5 -11 10 -3 6 -1 10 4 10 6 0 11 -4 11
-10z m96 -35 c-3 -8 -1 -15 4 -15 6 0 10 8 10 17 0 12 3 14 10 7 12 -12 2 -47
-11 -38 -5 3 -9 -2 -9 -10 0 -9 -7 -16 -15 -16 -18 0 -20 41 -3 58 16 16 21
15 14 -3z m-202 -12 c6 -15 8 -15 16 -3 7 10 10 11 10 3 0 -7 7 -13 16 -13 8
0 12 -4 9 -10 -8 -14 -58 -13 -72 1 -12 12 -7 39 7 39 4 0 11 -8 14 -17z m56
7 c0 -5 -2 -10 -4 -10 -3 0 -8 5 -11 10 -3 6 -1 10 4 10 6 0 11 -4 11 -10z
m90 -50 c0 -5 -9 -6 -20 -3 -14 4 -19 1 -17 -8 2 -8 2 -11 0 -7 -3 4 -5 11 -6
15 0 5 -9 17 -19 27 -30 33 -20 38 22 10 22 -15 40 -30 40 -34z m-379 -207
c-10 -17 -10 -16 -11 3 0 23 13 41 18 25 2 -6 -1 -18 -7 -28z m436 -5 c-3 -7
-5 -2 -5 12 0 14 2 19 5 13 2 -7 2 -19 0 -25z m-1 -38 c0 -14 -4 -15 -17 -7
-19 12 -17 24 3 24 8 0 14 -8 14 -17z m34 -35 c0 -5 -5 -3 -10 5 -5 8 -10 20
-10 25 0 6 5 3 10 -5 5 -8 10 -19 10 -25z m-30 -55 c0 -5 -4 -10 -10 -10 -5 0
-10 5 -10 10 0 6 5 10 10 10 6 0 10 -4 10 -10z m-33 -42 c-3 -8 -6 -5 -6 6 -1
11 2 17 5 13 3 -3 4 -12 1 -19z m-27 -48 c0 -5 -5 -10 -11 -10 -5 0 -7 5 -4
10 3 6 8 10 11 10 2 0 4 -4 4 -10z m-47 -25 c-3 -9 -8 -14 -10 -11 -3 3 -2 9
2 15 9 16 15 13 8 -4z m-229 -102 c6 -15 4 -15 -18 -7 -20 8 -21 21 -1 21 8 0
16 -6 19 -14z m51 -21 c-3 -3 -15 -6 -27 -7 -20 -2 -20 -1 -3 11 17 13 43 9
30 -4z m-125 -123 c0 -5 -4 -9 -8 -9 -5 0 -9 7 -9 15 0 8 4 12 9 9 4 -3 8 -9
8 -15z"/>
<path d="M1817 2373 c-15 -3 -25 -8 -22 -13 7 -12 -60 -24 -76 -14 -7 4 -10 3
-6 -4 11 -17 -4 -42 -24 -42 -26 0 -24 -25 3 -44 29 -21 47 -20 71 1 18 17 19
17 32 0 24 -33 105 -44 105 -14 0 6 9 1 20 -11 22 -24 55 -29 66 -11 4 7 11 2
18 -13 14 -28 57 -35 80 -13 20 20 21 36 2 29 -14 -6 -30 22 -20 37 3 5 0 9
-5 9 -6 0 -17 16 -26 36 -14 34 -14 37 8 56 l22 19 -27 -16 c-23 -14 -26 -22
-21 -46 4 -20 1 -29 -7 -29 -10 0 -10 -3 0 -15 7 -8 9 -15 6 -15 -4 0 -14 7
-22 15 -9 8 -11 15 -5 15 6 0 7 8 4 17 -4 10 -8 12 -10 6 -3 -7 -11 -9 -19 -6
-20 8 -46 -16 -39 -38 5 -13 1 -16 -13 -12 -12 3 -22 -2 -25 -11 -4 -9 -12
-16 -18 -16 -8 0 -9 4 0 13 6 8 8 17 4 20 -3 4 1 7 11 7 18 0 16 4 -26 50 -18
20 -14 30 14 30 10 0 18 5 18 10 0 6 -4 10 -9 10 -5 0 -15 2 -23 3 -7 2 -25 2
-41 0z m-37 -83 c0 -5 -5 -10 -11 -10 -5 0 -7 5 -4 10 3 6 8 10 11 10 2 0 4
-4 4 -10z m30 0 c0 -5 -4 -10 -10 -10 -5 0 -10 5 -10 10 0 6 5 10 10 10 6 0
10 -4 10 -10z m185 -40 c3 -5 1 -10 -4 -10 -6 0 -11 5 -11 10 0 6 2 10 4 10 3
0 8 -4 11 -10z m35 -10 c0 -5 -5 -10 -11 -10 -5 0 -7 5 -4 10 3 6 8 10 11 10
2 0 4 -4 4 -10z"/>
<path d="M2195 2360 c-3 -5 -2 -10 4 -10 5 0 13 5 16 10 3 6 2 10 -4 10 -5 0
-13 -4 -16 -10z"/>
<path d="M2255 2309 c10 -35 23 -45 18 -15 -3 15 -10 29 -15 32 -6 4 -7 -2 -3
-17z"/>
<path d="M2190 2296 c0 -2 9 -6 20 -9 11 -3 18 -1 14 4 -5 9 -34 13 -34 5z"/>
<path d="M1545 2240 c-3 -5 1 -10 10 -10 9 0 13 5 10 10 -3 6 -8 10 -10 10 -2
0 -7 -4 -10 -10z"/>
<path d="M1765 2240 c-3 -6 1 -7 9 -4 18 7 21 14 7 14 -6 0 -13 -4 -16 -10z"/>
<path d="M2278 2243 c7 -3 16 -2 19 1 4 3 -2 6 -13 5 -11 0 -14 -3 -6 -6z"/>
<path d="M1655 2211 c19 -8 19 -9 -3 -14 -18 -4 -18 -4 -2 -3 26 1 28 20 3 23
-15 2 -15 1 2 -6z"/>
<path d="M1560 2185 c-7 -8 -16 -12 -21 -9 -5 3 -9 3 -9 0 0 -2 -3 -13 -7 -23
-4 -13 2 -10 25 10 22 22 36 27 52 22 15 -5 20 -4 16 4 -10 16 -41 14 -56 -4z"/>
<path d="M1754 2188 c11 -6 48 -14 83 -18 55 -5 63 -4 60 9 -2 9 -10 14 -18
12 -18 -6 -65 -5 -109 2 -29 5 -32 4 -16 -5z"/>
<path d="M1953 2193 c9 -2 23 -2 30 0 6 3 -1 5 -18 5 -16 0 -22 -2 -12 -5z"/>
<path d="M1635 2170 c-3 -5 -1 -10 4 -10 6 0 11 5 11 10 0 6 -2 10 -4 10 -3 0
-8 -4 -11 -10z"/>
<path d="M1675 2160 c-3 -5 -1 -10 4 -10 6 0 11 5 11 10 0 6 -2 10 -4 10 -3 0
-8 -4 -11 -10z"/>
<path d="M1583 2153 c9 -2 23 -2 30 0 6 3 -1 5 -18 5 -16 0 -22 -2 -12 -5z"/>
<path d="M1938 2153 c7 -3 16 -2 19 1 4 3 -2 6 -13 5 -11 0 -14 -3 -6 -6z"/>
<path d="M1975 2149 c-4 -5 0 -9 8 -9 16 0 58 -34 58 -47 1 -16 9 -16 9 0 0 8
6 17 13 20 7 3 4 7 -8 11 -11 4 -32 13 -47 21 -16 8 -30 10 -33 4z"/>
<path d="M1595 2124 c-51 -11 -121 -43 -96 -44 7 0 22 -11 33 -25 19 -25 23
-36 12 -34 -4 0 -10 -3 -13 -8 -3 -4 -15 -15 -25 -23 -18 -14 -19 -13 -14 12
3 15 1 25 -3 22 -5 -3 -9 -15 -9 -27 -1 -22 -21 -57 -34 -57 -3 0 -6 7 -6 15
0 8 -4 15 -10 15 -5 0 -10 5 -10 11 0 5 5 7 10 4 6 -3 10 3 10 14 0 10 3 28 6
38 3 10 -3 5 -15 -12 -20 -29 -30 -102 -12 -90 5 3 12 1 16 -5 3 -5 1 -10 -5
-10 -6 0 -3 -11 7 -24 l18 -24 19 36 c25 51 47 74 63 67 8 -2 12 -1 9 4 -7 11
28 21 69 20 26 0 27 -2 10 -9 -12 -5 8 -6 50 -3 39 3 71 7 73 8 2 2 -25 9 -60
17 -35 8 -65 11 -68 6 -3 -4 -12 -3 -19 1 -10 7 -4 15 24 34 20 14 32 28 27
31 -6 3 -12 -1 -16 -9 -8 -21 -27 -19 -19 3 3 9 3 14 -1 10 -4 -3 -9 -14 -10
-25 -2 -11 -10 -17 -21 -15 -10 2 -14 -1 -10 -7 10 -17 -1 -13 -16 6 -10 11
-10 14 -1 9 6 -4 12 -3 12 3 0 16 -18 22 -23 9 -2 -7 -8 -9 -13 -5 -19 18 34
45 86 43 27 -1 51 2 53 7 1 5 18 2 36 -7 18 -10 35 -15 39 -12 3 3 0 6 -6 6
-7 0 -12 5 -12 10 0 14 37 13 42 -2 3 -7 14 -9 34 -3 l29 8 -30 7 c-52 14
-158 16 -210 4z"/>
<path d="M2089 2127 c6 -8 8 -16 5 -19 -2 -3 2 -8 10 -11 13 -5 13 -2 4 18 -6
14 -16 25 -21 25 -5 0 -5 -6 2 -13z"/>
<path d="M2405 2101 c-3 -5 -1 -12 5 -16 5 -3 10 1 10 9 0 18 -6 21 -15 7z"/>
<path d="M2066 2083 c-6 -14 -5 -15 5 -6 7 7 10 15 7 18 -3 3 -9 -2 -12 -12z"/>
<path d="M1823 2083 c9 -2 25 -2 35 0 9 3 1 5 -18 5 -19 0 -27 -2 -17 -5z"/>
<path d="M1924 2080 c16 -5 45 -24 65 -42 l36 -33 -29 33 c-21 22 -25 32 -15
32 8 0 20 -5 25 -10 6 -6 24 -13 39 -16 41 -7 52 -16 29 -25 -13 -5 -3 -8 31
-8 l49 -1 -59 28 c-80 39 -125 52 -166 51 l-34 -1 29 -8z"/>
<path d="M2137 2073 c-14 -13 -7 -25 8 -13 8 7 24 10 35 7 11 -3 20 -1 20 4 0
10 -53 12 -63 2z"/>
<path d="M1888 2063 c-26 -6 -22 -20 5 -19 12 1 21 -4 20 -11 -2 -7 3 -13 10
-14 6 -1 1 -5 -13 -9 l-25 -8 27 -1 c23 -1 27 3 25 21 -2 12 -9 24 -15 26 -7
2 -10 8 -6 13 5 9 1 10 -28 2z"/>
<path d="M1465 2039 c-4 -6 -5 -12 -2 -15 2 -3 7 2 10 11 7 17 1 20 -8 4z"/>
<path d="M1718 2043 c7 -3 16 -2 19 1 4 3 -2 6 -13 5 -11 0 -14 -3 -6 -6z"/>
<path d="M964 1996 c-3 -7 -4 -42 -2 -77 3 -62 4 -64 31 -67 33 -4 36 13 5 23
-20 6 -20 8 -5 12 21 6 22 19 2 27 -24 9 -20 67 5 73 11 3 20 9 20 14 0 14
-50 10 -56 -5z"/>
<path d="M1077 2003 c-10 -10 -8 -52 3 -74 8 -14 7 -19 -1 -19 -7 0 -9 -10 -4
-27 9 -35 9 -36 34 -28 27 8 28 46 1 63 -21 13 -29 72 -10 72 6 0 10 -9 10
-20 0 -11 5 -20 10 -20 18 0 11 39 -9 50 -23 12 -26 12 -34 3z m33 -113 c0
-11 -4 -20 -10 -20 -5 0 -10 9 -10 20 0 11 5 20 10 20 6 0 10 -9 10 -20z"/>
<path d="M1176 2001 c-3 -5 1 -12 10 -15 14 -5 16 -17 12 -71 -3 -36 -2 -65 3
-65 5 0 9 29 9 64 0 36 5 68 10 71 6 3 10 10 10 16 0 12 -47 12 -54 0z"/>
<path d="M2642 1998 c-13 -13 -17 -38 -6 -38 4 0 13 8 20 18 12 15 13 15 14
-9 0 -14 -9 -34 -20 -44 -11 -10 -20 -31 -20 -47 0 -24 4 -28 30 -28 17 0 30
5 30 10 0 6 -6 10 -14 10 -26 0 -29 21 -6 45 39 41 12 123 -28 83z"/>
<path d="M2752 1998 c-16 -16 -15 -110 1 -132 18 -25 45 -10 53 30 8 45 -3
101 -22 108 -20 8 -18 8 -32 -6z"/>
<path d="M2867 2003 c-10 -10 -8 -43 2 -43 5 0 11 8 14 18 4 16 4 16 12 -1 5
-12 1 -25 -13 -40 -11 -12 -22 -35 -24 -52 -3 -27 0 -30 30 -33 18 -2 32 1 32
7 0 6 -9 11 -20 11 -26 0 -25 23 2 60 18 25 20 33 10 55 -11 24 -31 32 -45 18z"/>
<path d="M2971 1960 c-15 -68 -14 -70 9 -70 14 0 20 -7 20 -22 0 -16 3 -19 11
-11 12 12 14 127 3 144 -14 24 -33 5 -43 -41z m29 -36 c0 -8 -4 -12 -10 -9 -5
3 -10 10 -10 16 0 5 5 9 10 9 6 0 10 -7 10 -16z"/>
<path d="M2085 1981 c-3 -5 -1 -12 5 -16 5 -3 10 -2 10 4 0 5 12 12 28 14 26
4 25 4 -5 6 -17 0 -34 -3 -38 -8z"/>
<path d="M1582 1923 c18 -18 34 -33 37 -33 3 0 0 5 -7 12 -7 7 -12 21 -12 33
0 15 -6 20 -25 20 l-24 0 31 -32z"/>
<path d="M2154 1945 c-9 -23 5 -37 27 -25 14 8 19 7 19 -1 0 -7 3 -10 6 -6 3
3 3 15 -1 26 -7 24 -43 28 -51 6z m31 -5 c3 -5 1 -10 -4 -10 -6 0 -11 5 -11
10 0 6 2 10 4 10 3 0 8 -4 11 -10z"/>
<path d="M1685 1925 c-11 -9 -15 -14 -9 -11 16 8 37 -48 29 -74 -6 -20 -7 -21
-21 -3 -12 17 -13 16 -14 -8 0 -33 37 -73 85 -93 45 -19 100 -22 89 -4 -4 7
-3 8 4 4 27 -16 50 13 54 66 7 87 -33 125 -140 134 -43 4 -62 1 -77 -11z m55
-79 c0 -8 -4 -18 -10 -21 -5 -3 -10 3 -10 14 0 12 5 21 10 21 6 0 10 -6 10
-14z m35 -36 c3 -5 1 -10 -4 -10 -6 0 -11 5 -11 10 0 6 2 10 4 10 3 0 8 -4 11
-10z"/>
<path d="M2241 1904 c0 -11 3 -14 6 -6 3 7 2 16 -1 19 -3 4 -6 -2 -5 -13z"/>
<path d="M1525 1875 c-46 -22 -65 -40 -65 -64 0 -14 -4 -20 -11 -15 -7 4 -10
1 -7 -7 3 -8 10 -15 16 -15 7 -1 15 -2 20 -3 4 0 6 -21 4 -46 -3 -31 0 -45 8
-45 9 0 11 10 6 33 -4 20 -3 27 3 18 6 -9 11 -10 15 -2 4 6 16 11 27 11 16 0
19 -8 20 -57 0 -32 3 -51 6 -43 2 8 7 21 9 29 4 11 7 12 16 3 23 -23 31 -12
25 39 -4 31 -13 56 -23 64 -13 9 -15 20 -10 47 5 27 2 40 -9 52 -9 9 -17 16
-18 16 -1 -1 -15 -7 -32 -15z m-18 -117 c-3 -7 -5 -2 -5 12 0 14 2 19 5 13 2
-7 2 -19 0 -25z"/>
<path d="M1280 1865 c0 -8 5 -15 10 -15 6 0 10 7 10 15 0 8 -4 15 -10 15 -5 0
-10 -7 -10 -15z"/>
<path d="M2300 1865 c0 -8 2 -15 4 -15 2 0 6 7 10 15 3 8 1 15 -4 15 -6 0 -10
-7 -10 -15z"/>
<path d="M1723 1694 c3 -4 2 -15 -4 -26 -9 -17 -8 -18 10 -6 25 15 28 38 4 38
-9 0 -13 -3 -10 -6z"/>
<path d="M1830 1675 c7 -9 15 -13 17 -11 7 7 -7 26 -19 26 -6 0 -6 -6 2 -15z"/>
<path d="M2043 1669 c1 -6 -16 -13 -37 -16 -29 -3 -52 -15 -83 -43 -41 -38
-53 -44 -81 -41 -9 1 -11 -6 -6 -23 4 -19 0 -28 -19 -41 -14 -9 -31 -15 -39
-14 -29 4 -36 -2 -31 -22 4 -16 2 -20 -8 -17 -8 3 -13 12 -11 22 2 9 -2 16 -8
16 -5 0 -10 -7 -10 -15 0 -21 -30 -19 -31 3 0 10 -3 12 -6 5 -10 -25 -25 -13
-19 15 l7 27 -16 -23 c-19 -26 -38 -20 -30 11 l5 22 -11 -22 c-15 -29 -64 -25
-63 6 0 11 -3 21 -8 21 -4 0 -8 -9 -8 -19 0 -12 -14 -26 -37 -38 -20 -10 -39
-25 -41 -33 -3 -11 -1 -12 5 -2 13 18 56 24 65 9 5 -8 8 -7 8 5 0 11 7 16 20
15 11 -1 20 -5 20 -9 0 -4 6 -5 14 -2 9 4 16 -3 19 -18 l4 -23 2 23 c1 25 4
26 29 13 9 -5 25 -12 35 -15 10 -3 15 -10 12 -16 -3 -5 -1 -10 4 -10 6 0 11 7
11 16 0 24 24 11 30 -17 l6 -24 6 23 c3 12 14 22 23 22 11 0 15 -5 12 -14 -4
-11 2 -14 28 -13 18 1 31 5 29 8 -2 4 3 10 12 13 14 5 16 16 11 56 -5 43 -3
51 14 60 10 6 34 8 52 5 26 -5 37 -2 56 19 29 30 41 33 41 9 0 -15 2 -16 10
-3 7 10 12 11 18 4 4 -6 15 -13 25 -17 20 -7 23 -24 5 -30 -7 -2 -3 -2 9 -1
12 2 24 -2 26 -9 3 -6 6 -2 6 11 1 24 35 32 44 10 3 -7 6 0 6 15 1 32 -23 46
-51 28 -15 -9 -20 -8 -25 5 -4 11 -13 14 -29 10 -14 -4 -24 -2 -24 4 0 5 4 10
9 10 5 0 7 10 3 22 -4 16 -2 19 9 13 12 -8 12 -6 0 8 -16 20 -22 22 -18 6z
m-23 -39 c0 -5 -11 -10 -25 -10 -14 0 -25 5 -25 10 0 6 11 10 25 10 14 0 25
-4 25 -10z m-232 -162 c-6 -18 -28 -21 -28 -4 0 9 7 16 16 16 9 0 14 -5 12
-12z"/>
<path d="M1460 1584 c0 -9 -5 -12 -12 -8 -7 4 -8 3 -4 -4 4 -7 16 -12 27 -12
10 0 19 -5 19 -12 0 -9 3 -9 11 -1 8 8 5 17 -10 32 -25 25 -31 26 -31 5z"/>
<path d="M1650 1575 c0 -8 7 -15 15 -15 9 0 12 6 9 15 -4 8 -10 15 -15 15 -5
0 -9 -7 -9 -15z"/>
<path d="M1505 1530 c-3 -5 -1 -10 4 -10 6 0 11 5 11 10 0 6 -2 10 -4 10 -3 0
-8 -4 -11 -10z"/>
<path d="M1592 1390 c0 -14 2 -19 5 -12 2 6 2 18 0 25 -3 6 -5 1 -5 -13z"/>
<path d="M1631 1394 c0 -11 3 -14 6 -6 3 7 2 16 -1 19 -3 4 -6 -2 -5 -13z"/>
<path d="M1463 1360 c0 -25 2 -35 4 -22 2 12 2 32 0 45 -2 12 -4 2 -4 -23z"/>
<path d="M1870 1398 c0 -3 -7 -22 -15 -41 -13 -30 -13 -35 -1 -31 13 5 29 63
20 73 -2 2 -4 2 -4 -1z"/>
<path d="M1675 1300 c-13 -6 -15 -9 -5 -9 8 0 22 4 30 9 18 12 2 12 -25 0z"/>
<path d="M1470 1058 c0 -7 5 -44 11 -83 6 -38 12 -79 12 -90 1 -11 9 -20 16
-20 11 0 19 27 31 103 15 93 15 102 1 100 -10 -2 -17 -16 -19 -38 -4 -46 -22
-64 -22 -23 0 17 -3 38 -6 47 -7 19 -24 21 -24 4z"/>
<path d="M1671 965 c-2 -89 0 -105 14 -105 13 0 15 17 15 105 0 83 -3 105 -14
105 -11 0 -14 -23 -15 -105z"/>
<path d="M1836 1061 c-4 -6 -6 -31 -5 -56 2 -39 7 -49 31 -63 31 -18 32 -20
19 -41 -11 -18 -31 -5 -31 20 0 10 -4 19 -10 19 -13 0 -13 -36 0 -61 21 -39
70 -16 70 32 0 21 -7 31 -27 41 -27 13 -38 44 -26 75 9 22 23 14 23 -12 0 -16
6 -25 15 -25 16 0 20 36 7 57 -10 16 -59 27 -66 14z"/>
<path d="M2039 980 c-1 -49 -2 -95 -3 -102 -1 -6 5 -13 12 -15 9 -4 12 21 12
101 0 64 -4 106 -10 106 -6 0 -11 -38 -11 -90z"/>
<path d="M2194 1055 c-10 -26 0 -173 13 -186 10 -10 18 -10 38 -1 24 11 25 15
25 101 0 84 -1 89 -22 95 -36 9 -48 7 -54 -9z m56 -77 c0 -66 -10 -95 -29 -84
-12 8 -16 128 -4 139 3 4 12 7 20 7 9 0 13 -17 13 -62z"/>
<path d="M2401 964 c-2 -84 0 -105 11 -102 7 3 15 26 18 54 l5 49 12 -30 c7
-16 13 -39 15 -49 2 -11 9 -21 16 -24 9 -3 12 22 12 102 0 86 -3 106 -14 106
-10 0 -16 -14 -18 -42 l-3 -43 -14 43 c-24 73 -37 52 -40 -64z"/>
</g>
</svg>
