<?xml version="1.0" standalone="no"?>
<!DOCTYPE svg PUBLIC "-//W3C//DTD SVG 20010904//EN"
 "http://www.w3.org/TR/2001/REC-SVG-20010904/DTD/svg10.dtd">
<svg version="1.0" xmlns="http://www.w3.org/2000/svg"
 width="283.000000pt" height="283.000000pt" viewBox="0 0 283.000000 283.000000"
 preserveAspectRatio="xMidYMid meet">

<g transform="translate(0.000000,283.000000) scale(0.100000,-0.100000)"
fill="#000000" stroke="none">
<path d="M1235 2429 c-218 -44 -399 -140 -551 -294 -126 -129 -206 -263 -261
-442 -25 -82 -27 -101 -27 -273 -1 -165 2 -193 23 -265 114 -389 409 -668 790
-747 79 -17 121 -19 241 -15 179 6 264 27 415 102 275 135 466 368 547 665 20
73 23 108 23 255 0 156 -3 178 -29 270 -98 349 -363 616 -711 720 -78 23 -112
28 -250 31 -88 1 -182 -1 -210 -7z m405 -24 c621 -149 955 -810 706 -1394 -50
-116 -116 -212 -216 -312 -237 -237 -551 -339 -885 -284 -213 34 -391 128
-550 289 -139 140 -231 306 -272 492 -26 117 -24 361 5 467 112 411 439 697
867 761 58 9 281 -4 345 -19z"/>
<path d="M1248 2390 c-210 -38 -383 -131 -538 -289 -178 -182 -266 -381 -277
-627 -14 -307 82 -553 297 -764 471 -463 1258 -332 1561 258 145 282 144 613
-1 897 -125 243 -340 421 -606 500 -75 23 -112 27 -239 30 -82 2 -171 0 -197
-5z m382 -25 c186 -44 336 -129 475 -269 323 -325 374 -829 123 -1212 -335
-512 -1045 -590 -1491 -165 -227 216 -337 551 -282 862 35 203 113 356 259
508 163 169 346 259 601 295 55 8 249 -4 315 -19z"/>
<path d="M1312 2218 c-15 -15 -15 -76 -1 -134 9 -36 16 -44 34 -44 38 0 46 21
39 100 -6 64 -10 73 -31 81 -30 11 -27 11 -41 -3z m43 -41 c9 -34 2 -112 -10
-112 -5 0 -11 30 -13 68 -3 66 11 93 23 44z"/>
<path d="M1484 2213 c-1 -10 -5 -53 -9 -95 -5 -52 -4 -78 3 -78 13 0 22 24 22
63 l1 32 13 -31 c8 -18 13 -40 13 -49 -1 -10 3 -20 10 -22 7 -3 13 19 18 64 3
37 8 80 10 96 3 19 0 27 -10 27 -11 0 -15 -12 -15 -42 0 -47 -10 -43 -25 10
-11 38 -30 54 -31 25z"/>
<path d="M1141 2199 c-19 -8 -22 -14 -16 -37 4 -15 13 -54 20 -87 11 -54 14
-60 36 -57 13 1 30 4 37 7 14 5 16 51 2 60 -5 3 -10 19 -10 35 0 37 -15 76
-32 82 -7 3 -24 1 -37 -3z m42 -59 c6 -25 -6 -60 -15 -44 -11 19 -18 65 -12
75 8 14 20 0 27 -31z m17 -85 c0 -8 -4 -15 -10 -15 -5 0 -10 7 -10 15 0 8 5
15 10 15 6 0 10 -7 10 -15z"/>
<path d="M1661 2153 c-7 -26 -17 -66 -22 -87 -12 -43 -3 -56 39 -56 27 0 29
16 2 25 -26 8 -26 29 -1 22 12 -3 22 1 25 9 3 9 -2 14 -14 14 -23 0 -23 2 -9
54 9 33 14 37 35 33 16 -3 24 0 24 9 0 8 -6 14 -12 14 -7 0 -22 3 -34 6 -18 5
-23 -1 -33 -43z"/>
<path d="M1250 1830 c0 -5 5 -10 11 -10 5 0 7 5 4 10 -3 6 -8 10 -11 10 -2 0
-4 -4 -4 -10z"/>
<path d="M1220 1804 c0 -20 -4 -25 -16 -20 -14 5 -15 4 -4 -9 10 -12 10 -21 1
-41 -6 -14 -11 -37 -11 -52 l0 -26 17 24 c15 21 30 150 17 150 -2 0 -4 -12 -4
-26z"/>
<path d="M1256 1786 c-16 -16 -16 -18 -3 -13 11 4 20 -1 28 -14 16 -30 21 -17
7 17 -13 29 -13 29 -32 10z"/>
<path d="M1389 1723 c0 -10 -2 -26 -4 -35 -2 -10 1 -18 6 -18 5 0 9 16 9 35 0
35 -9 50 -11 18z"/>
<path d="M1521 1723 c7 -12 15 -20 18 -17 3 2 -3 12 -13 22 -17 16 -18 16 -5
-5z"/>
<path d="M1550 1698 c-7 -26 -18 -49 -25 -52 -10 -4 -12 -13 -5 -35 6 -23 5
-31 -7 -35 -8 -3 -11 -11 -7 -17 4 -8 9 -7 15 2 7 11 9 11 9 1 0 -8 5 -10 12
-6 8 5 9 2 5 -9 -3 -9 -3 -16 1 -16 29 5 50 -3 48 -18 0 -10 9 -20 24 -24 22
-6 21 -7 -11 -8 -21 -1 -43 -9 -52 -19 -15 -17 -15 -19 13 -36 17 -9 30 -21
30 -27 0 -5 5 -9 11 -9 8 0 8 5 -1 15 -20 24 13 19 35 -5 10 -11 14 -20 10
-20 -4 0 5 -11 21 -25 16 -14 31 -25 34 -25 3 0 6 -8 7 -17 1 -10 3 -29 5 -42
2 -13 -2 -26 -9 -28 -8 -3 -11 4 -8 18 6 28 -4 69 -16 69 -5 0 -9 -12 -10 -27
0 -25 -1 -26 -9 -8 -5 11 -9 14 -9 7 -1 -17 -71 22 -116 66 -21 20 -32 26 -28
15 6 -16 5 -17 -12 -3 -10 8 -26 14 -37 12 -10 -2 -18 1 -18 6 0 5 -21 13 -47
17 -27 4 -52 9 -57 12 -5 4 -25 7 -45 9 -26 2 -32 1 -21 -6 8 -5 25 -10 38
-10 12 0 30 -8 40 -17 9 -10 31 -18 47 -19 70 -2 141 -31 209 -85 27 -22 52
-39 56 -39 7 0 8 -2 16 -74 4 -33 9 -44 15 -35 6 9 9 10 9 2 0 -21 -21 -25
-36 -7 -14 17 -15 17 -10 2 8 -25 -3 -48 -20 -41 -9 3 -14 -2 -14 -15 0 -21
-23 -45 -47 -48 -10 -2 -11 1 -3 10 8 10 5 13 -14 11 -13 -2 -33 -8 -44 -14
-20 -11 -42 2 -28 16 3 3 1 12 -4 18 -8 9 -2 16 19 25 16 6 35 9 40 5 6 -3 11
1 11 10 0 21 -30 32 -40 14 -7 -11 -10 -10 -15 3 -4 9 -12 15 -19 12 -6 -2
-12 4 -13 15 -1 14 3 18 15 14 13 -4 14 -3 3 5 -19 13 -51 3 -44 -14 3 -8 -1
-14 -10 -14 -8 0 -17 6 -19 12 -3 9 -18 1 -43 -20 -27 -24 -41 -30 -48 -23 -6
6 -18 11 -27 11 -12 -1 -12 -2 3 -11 23 -13 22 -36 -3 -49 -11 -6 -18 -15 -15
-20 3 -5 1 -11 -5 -15 -5 -3 -10 1 -10 9 0 9 -4 16 -10 16 -5 0 -7 -7 -4 -15
4 -8 1 -15 -5 -15 -6 0 -11 8 -12 18 0 10 -3 12 -6 5 -2 -7 -11 -13 -19 -13
-9 0 -12 4 -9 10 3 6 -1 7 -10 4 -11 -5 -14 -2 -9 12 6 17 5 17 -9 -1 -16 -20
-16 -20 -18 5 -1 16 -3 19 -6 8 -2 -10 -13 -17 -26 -16 -44 2 -55 -2 -60 -24
-6 -22 -6 -22 8 -4 11 14 15 16 15 5 0 -9 3 -10 8 -3 12 18 99 4 114 -20 6 -8
8 -7 8 2 0 19 20 14 21 -5 0 -11 3 -13 6 -5 2 6 11 12 19 12 10 0 12 -5 8 -12
-6 -10 -4 -10 8 0 12 10 18 10 23 1 12 -18 25 10 25 53 0 28 5 38 20 43 11 3
24 3 30 0 6 -3 24 3 40 15 17 12 30 16 30 10 0 -6 4 -9 9 -6 4 3 15 0 25 -7
14 -11 13 -14 -13 -28 -28 -16 -28 -16 -24 5 4 19 2 18 -11 -4 -8 -14 -15 -34
-16 -46 0 -11 -5 -25 -12 -32 -8 -8 -9 -12 -1 -12 16 0 5 -34 -19 -59 -11 -13
-32 -22 -51 -22 -18 -1 -82 -2 -144 -3 -89 -1 -116 -4 -129 -17 -15 -16 -13
-17 22 -22 70 -9 97 -7 120 8 20 13 26 13 51 0 17 -9 41 -12 63 -9 19 3 42 6
50 7 8 2 21 7 29 11 9 6 12 5 8 -2 -5 -6 0 -8 13 -5 11 3 20 9 20 14 0 5 9 9
20 9 11 0 23 7 26 15 4 9 19 15 41 15 20 0 51 9 69 21 38 23 97 93 87 103 -3
3 -1 6 5 6 16 0 55 90 53 125 -1 23 1 26 9 15 13 -21 12 -12 -6 49 -14 48 -14
58 2 129 10 42 18 79 19 82 0 3 3 10 7 15 11 17 46 115 42 115 -3 0 -17 -12
-32 -26 -18 -18 -21 -25 -9 -21 20 7 21 3 6 -25 -9 -17 -13 -18 -20 -7 -6 10
-9 6 -9 -13 0 -28 -21 -50 -28 -30 -2 7 -7 10 -11 8 -3 -2 -6 30 -5 72 2 61 0
68 -5 34 -4 -24 -17 -53 -29 -65 l-22 -21 0 21 c0 11 -7 24 -16 27 -22 9 -24
8 -24 -9 0 -8 -7 -15 -15 -15 -8 0 -15 5 -15 10 0 6 4 10 9 10 6 0 9 9 8 20
-2 24 -2 24 -20 6 -12 -12 -18 -13 -32 -2 -16 11 -16 14 -2 28 10 9 12 19 6
25 -5 5 -2 23 10 45 10 21 15 42 10 49 -5 9 -12 -3 -19 -33z m113 -203 c-3 -9
-8 -14 -10 -11 -3 3 -2 9 2 15 9 16 15 13 8 -4z m25 -15 c-1 -16 -6 -30 -10
-30 -9 0 -10 7 -2 38 9 31 15 27 12 -8z m-18 -40 c21 -16 22 -20 7 -20 -12 0
-16 -4 -11 -12 4 -7 4 -10 0 -6 -4 3 -8 10 -8 15 0 14 -20 33 -35 33 -8 0 -11
-5 -8 -11 5 -7 -3 -9 -21 -7 -15 2 -29 9 -32 16 -3 9 3 11 22 6 15 -3 26 -2
26 4 0 14 30 5 60 -18z m70 19 c0 8 3 12 6 9 7 -7 -18 -48 -28 -48 -10 0 -10
34 -1 43 4 4 10 2 15 -5 6 -10 8 -10 8 1z m-249 -446 c13 -17 13 -17 -6 -3
-11 8 -22 16 -24 17 -2 2 0 3 6 3 6 0 17 -8 24 -17z"/>
<path d="M1139 1714 c-6 -39 -5 -55 2 -60 5 -3 9 -11 9 -17 0 -7 -5 -4 -11 6
-15 25 -24 21 -27 -12 -2 -33 15 -51 24 -26 5 11 10 13 19 5 10 -8 15 -8 21 1
5 8 3 10 -7 5 -8 -4 -6 -1 4 7 17 14 17 16 -4 53 -25 46 -29 50 -30 38z"/>
<path d="M1291 1694 c-19 -8 -41 -12 -48 -10 -12 5 -17 -6 -14 -26 0 -5 -6 -8
-14 -8 -18 0 -20 -14 -2 -27 17 -14 58 -23 51 -12 -3 5 2 12 11 15 13 6 14 8
3 15 -10 7 -9 9 5 9 13 0 17 -5 13 -18 -5 -13 1 -22 19 -30 24 -11 30 -7 26
21 0 4 2 6 7 6 22 -4 22 4 -1 25 -24 23 -22 46 3 31 6 -3 10 0 10 7 0 19 -28
19 -69 2z"/>
<path d="M1606 1695 c4 -8 8 -15 10 -15 2 0 4 7 4 15 0 8 -4 15 -10 15 -5 0
-7 -7 -4 -15z"/>
<path d="M1445 1671 c8 -26 -3 -27 -21 -3 -13 16 -14 16 -8 -1 5 -13 2 -16
-10 -11 -10 4 -18 -1 -23 -12 -4 -11 -14 -25 -22 -32 -14 -12 -14 -13 2 -8 9
3 17 0 17 -5 0 -7 11 -9 27 -6 19 3 31 -1 43 -15 14 -17 20 -19 38 -9 24 13
30 33 10 29 -7 -2 -13 4 -13 12 0 8 -6 21 -12 28 -7 7 -13 20 -13 27 0 8 -5
17 -11 21 -8 4 -9 0 -4 -15z"/>
<path d="M1620 1656 c0 -8 4 -17 9 -20 5 -4 7 3 4 14 -6 23 -13 26 -13 6z"/>
<path d="M1185 1570 c-10 -11 -14 -20 -9 -20 5 0 15 9 22 20 7 11 11 20 9 20
-2 0 -12 -9 -22 -20z"/>
<path d="M1138 1573 c7 -3 16 -2 19 1 4 3 -2 6 -13 5 -11 0 -14 -3 -6 -6z"/>
<path d="M1277 1566 c-4 -10 1 -12 14 -9 23 6 24 9 5 16 -8 3 -17 0 -19 -7z"/>
<path d="M1350 1572 c0 -12 19 -26 26 -19 2 2 -2 10 -11 17 -9 8 -15 8 -15 2z"/>
<path d="M1095 1549 c-4 -6 -5 -12 -2 -15 2 -3 7 2 10 11 7 17 1 20 -8 4z"/>
<path d="M1406 1552 c-3 -5 1 -9 9 -9 8 0 12 4 9 9 -3 4 -7 8 -9 8 -2 0 -6 -4
-9 -8z"/>
<path d="M1155 1529 c-17 -4 -43 -12 -59 -18 l-29 -12 24 -17 c13 -9 27 -16
32 -14 4 1 7 0 7 -3 0 -8 -57 -35 -63 -29 -2 3 -7 -7 -11 -21 -6 -24 -26 -36
-26 -14 0 5 -5 7 -11 3 -8 -5 -8 -9 1 -14 6 -4 11 -10 10 -14 0 -3 3 -13 8
-22 7 -13 11 -10 21 14 18 43 40 59 86 66 31 5 36 4 20 -4 -18 -9 -17 -10 5
-5 14 2 39 5 55 6 21 1 12 5 -30 14 -33 7 -56 13 -52 14 5 1 1 8 -7 17 -9 8
-20 12 -26 9 -5 -3 -10 -2 -10 4 0 5 5 13 11 17 15 9 109 9 134 -1 15 -5 17
-4 6 3 -10 7 4 9 50 7 82 -5 57 3 -41 13 -42 4 -89 5 -105 1z"/>
<path d="M1448 1528 c5 -5 16 -8 23 -6 8 3 3 7 -10 11 -17 4 -21 3 -13 -5z"/>
<path d="M1496 1525 c4 -8 11 -15 16 -15 6 0 5 6 -2 15 -7 8 -14 15 -16 15 -2
0 -1 -7 2 -15z"/>
<path d="M1731 1504 c0 -11 3 -14 6 -6 3 7 2 16 -1 19 -3 4 -6 -2 -5 -13z"/>
<path d="M1468 1503 c27 -11 10 -21 -20 -12 -39 11 -64 12 -54 2 4 -4 13 -8
19 -9 28 -2 78 -17 83 -25 3 -5 11 -9 17 -9 7 0 4 5 -5 11 -10 5 -18 19 -18
29 0 13 -7 20 -17 19 -11 0 -13 -3 -5 -6z"/>
<path d="M1154 1489 c-8 -14 14 -19 25 -6 8 10 7 14 -5 14 -8 0 -17 -4 -20 -8z"/>
<path d="M1270 1482 c0 -4 10 -13 23 -21 22 -14 22 -14 3 8 -20 22 -26 25 -26
13z"/>
<path d="M1350 1481 c-8 -6 -18 -7 -24 -4 -5 3 -6 1 -3 -5 8 -12 47 -4 47 9 0
11 -1 11 -20 0z"/>
<path d="M1373 1465 c-10 -10 -9 -14 3 -19 23 -9 42 -8 28 2 -6 4 -13 12 -15
19 -3 8 -7 7 -16 -2z"/>
<path d="M1021 1443 c-11 -27 -11 -27 5 -8 8 11 20 19 25 18 5 -2 9 2 9 7 0
21 -27 9 -39 -17z"/>
<path d="M690 1385 c0 -48 2 -55 20 -55 11 0 20 5 20 10 0 6 -6 10 -12 10 -9
0 -8 4 2 10 10 6 11 10 3 10 -8 0 -13 13 -13 29 0 16 6 32 13 34 6 3 2 6 -10
6 -21 1 -23 -3 -23 -54z"/>
<path d="M772 1388 c2 -39 7 -53 18 -53 22 0 25 34 4 49 -12 9 -15 19 -10 32
8 18 8 18 16 -1 8 -19 9 -19 9 3 1 16 -5 22 -19 22 -18 0 -20 -6 -18 -52z m28
-28 c0 -5 -4 -10 -10 -10 -5 0 -10 5 -10 10 0 6 5 10 10 10 6 0 10 -4 10 -10z"/>
<path d="M847 1432 c6 -4 13 -30 16 -57 l3 -50 2 52 c1 30 7 53 15 56 6 3 -1
6 -18 6 -17 0 -25 -3 -18 -7z"/>
<path d="M1895 1429 c-4 -6 -4 -13 0 -17 3 -3 10 0 15 8 9 13 10 13 10 0 -1
-8 -7 -24 -15 -34 -25 -32 -19 -56 13 -56 26 1 26 1 7 15 -18 14 -18 17 -3 43
8 15 13 33 11 40 -6 15 -29 16 -38 1z"/>
<path d="M1977 1433 c-11 -10 -8 -76 3 -93 9 -13 12 -12 25 4 32 42 6 123 -28
89z"/>
<path d="M2055 1429 c-4 -6 -4 -13 0 -17 3 -3 10 0 15 8 9 13 10 13 10 0 -1
-8 -7 -24 -15 -34 -25 -32 -19 -56 13 -56 26 1 26 1 8 15 -18 13 -18 16 -3 39
9 14 14 32 11 40 -7 18 -30 21 -39 5z"/>
<path d="M2132 1400 c-8 -32 -7 -40 4 -40 8 0 14 -7 14 -15 0 -8 5 -15 10 -15
6 0 10 25 10 55 0 67 -22 76 -38 15z"/>
<path d="M1508 1423 c6 -2 18 -2 25 0 6 3 1 5 -13 5 -14 0 -19 -2 -12 -5z"/>
<path d="M1132 1383 c12 -13 22 -23 23 -23 1 0 0 10 -2 23 -3 14 -12 23 -23
23 -18 0 -18 -2 2 -23z"/>
<path d="M1542 1390 c9 -14 48 -23 48 -10 -1 15 -18 29 -37 28 -16 -2 -19 -5
-11 -18z"/>
<path d="M1216 1382 c-2 -4 -1 -14 5 -22 14 -23 11 -43 -6 -36 -24 9 -18 -28
8 -51 59 -53 132 -47 143 13 9 47 -4 74 -42 90 -36 15 -100 19 -108 6z m45
-72 c5 0 9 -5 9 -11 0 -8 -5 -8 -15 1 -8 7 -14 20 -14 29 1 13 2 13 6 -1 2
-10 9 -18 14 -18z"/>
<path d="M1387 1340 c3 -14 5 -42 4 -63 0 -32 4 -39 25 -47 14 -6 27 -10 29
-10 7 0 2 70 -5 75 -4 3 -7 13 -5 23 1 9 0 11 -2 5 -6 -17 -40 1 -46 24 -2 10
-2 7 0 -7z m30 -62 c-3 -8 -6 -5 -6 6 -1 11 2 17 5 13 3 -3 4 -12 1 -19z"/>
<path d="M1095 1350 c-12 -4 -26 -14 -31 -21 -15 -18 -25 -61 -13 -53 5 3 9
-2 9 -10 0 -9 5 -16 10 -16 7 0 7 -6 0 -20 -6 -11 -7 -20 -2 -20 6 0 12 9 15
20 3 11 12 20 21 20 12 0 16 -11 17 -42 1 -25 4 -33 6 -20 4 18 8 21 18 12 21
-18 27 17 8 53 -9 17 -16 44 -15 59 1 33 -16 48 -43 38z"/>
<path d="M1237 1206 c-4 -10 -1 -13 9 -9 15 6 19 23 5 23 -5 0 -11 -7 -14 -14z"/>
<path d="M1306 1206 c21 -15 30 -14 19 3 -3 6 -14 11 -23 11 -13 0 -13 -2 4
-14z"/>
<path d="M1030 1142 c0 -8 9 -16 21 -19 11 -3 18 -11 16 -18 -3 -6 1 -12 9
-12 19 0 17 7 -6 37 -13 17 -20 20 -20 10 0 -13 -1 -13 -10 0 -7 11 -10 12
-10 2z"/>
<path d="M1596 1078 c3 -5 10 -6 15 -3 13 9 11 12 -6 12 -8 0 -12 -4 -9 -9z"/>
<path d="M1046 1053 c-6 -14 -5 -15 5 -6 7 7 10 15 7 18 -3 3 -9 -2 -12 -12z"/>
<path d="M1091 1004 c0 -11 3 -14 6 -6 3 7 2 16 -1 19 -3 4 -6 -2 -5 -13z"/>
<path d="M1051 984 c0 -11 3 -14 6 -6 3 7 2 16 -1 19 -3 4 -6 -2 -5 -13z"/>
<path d="M1332 975 c-6 -14 -8 -25 -3 -25 8 0 23 41 17 47 -1 2 -8 -8 -14 -22z"/>
<path d="M1054 753 c4 -9 9 -43 13 -75 8 -78 28 -77 37 3 4 33 10 67 13 76 4
11 2 14 -8 11 -8 -2 -16 -20 -19 -39 l-6 -34 -7 38 c-4 20 -13 37 -19 37 -5 0
-7 -8 -4 -17z"/>
<path d="M1200 695 c0 -43 4 -75 10 -75 6 0 10 32 10 75 0 43 -4 75 -10 75 -6
0 -10 -32 -10 -75z"/>
<path d="M1317 764 c-13 -14 -7 -51 13 -77 22 -27 26 -47 10 -47 -5 0 -10 7
-10 15 0 8 -5 15 -11 15 -6 0 -8 -7 -5 -16 3 -9 6 -20 6 -26 0 -5 10 -8 23 -6
31 4 37 53 8 63 -15 4 -21 15 -21 36 0 16 5 29 10 29 6 0 10 -9 10 -20 0 -11
5 -20 10 -20 6 0 10 11 10 25 0 14 -4 25 -9 25 -5 0 -16 2 -23 5 -8 3 -17 2
-21 -1z"/>
<path d="M1460 695 c0 -43 4 -75 10 -75 6 0 10 32 10 75 0 43 -4 75 -10 75 -6
0 -10 -32 -10 -75z"/>
<path d="M1577 763 c-9 -8 -9 -90 -1 -121 5 -16 13 -22 28 -20 19 3 21 11 24
67 2 45 -1 67 -10 72 -16 11 -32 11 -41 2z m33 -68 c0 -30 -4 -55 -10 -55 -5
0 -10 25 -10 55 0 30 5 55 10 55 6 0 10 -25 10 -55z"/>
<path d="M1726 754 c-10 -26 -7 -134 4 -134 6 0 10 19 10 43 1 41 1 42 15 17
8 -14 14 -33 15 -42 0 -10 5 -18 10 -18 6 0 10 32 10 75 0 43 -4 75 -10 75 -5
0 -10 -15 -11 -32 l-1 -33 -14 33 c-16 36 -19 38 -28 16z"/>
</g>
</svg>
